# xmcd CD database file
#
# Track frame offsets:
#	151
#	18196
#	40579
#	58276
#
# Disc length: 1140 seconds
#
# Revision: 0
# Processed by: cddbd v1.5.1PL0 Copyright (c) Steve Scherf et al.
# Submitted via: CDex 1.51
#
DISCID=29047204
DTITLE=BRAIN DRIVE - MACH-2
DYEAR=2005
DGENRE=Techno
TTITLE0=STICKY BLOOD RUSH
TTITLE1=BITTER SWEET
TTITLE2=(Bonus Track)
TTITLE3=BLUE HEAVEN (Bonus Track)
EXTD=YEAR: 2005
EXTT0=
EXTT1=
EXTT2=
EXTT3=
PLAYORDER=
